<svg width="36" height="20" viewBox="0 0 36 20" fill="none" xmlns="http://www.w3.org/2000/svg">
<g filter="url(#filter0_d_1_2)">
<path d="M10.112 11.584C9.22664 11.584 8.41064 11.4453 7.66398 11.168C6.92798 10.88 6.28264 10.4747 5.72798 9.952C5.18398 9.42933 4.75731 8.816 4.44798 8.112C4.14931 7.408 3.99998 6.63466 3.99998 5.792C3.99998 4.94933 4.14931 4.176 4.44798 3.472C4.75731 2.768 5.18931 2.15466 5.74398 1.632C6.29864 1.10933 6.94931 0.709331 7.69598 0.431997C8.44264 0.143998 9.26398 -1.90735e-06 10.16 -1.90735e-06C11.152 -1.90735e-06 12.0426 0.165331 12.832 0.495997C13.632 0.826664 14.304 1.30666 14.848 1.936L13.184 3.472C12.7786 3.04533 12.336 2.73066 11.856 2.528C11.376 2.31466 10.8533 2.208 10.288 2.208C9.74398 2.208 9.24798 2.29333 8.79998 2.464C8.35198 2.63466 7.96264 2.88 7.63198 3.2C7.31198 3.52 7.06131 3.89866 6.87998 4.336C6.70931 4.77333 6.62398 5.25866 6.62398 5.792C6.62398 6.31466 6.70931 6.79466 6.87998 7.232C7.06131 7.66933 7.31198 8.05333 7.63198 8.384C7.96264 8.704 8.34664 8.94933 8.78398 9.12C9.23198 9.29066 9.72264 9.376 10.256 9.376C10.768 9.376 11.264 9.296 11.744 9.136C12.2346 8.96533 12.7093 8.68266 13.168 8.288L14.64 10.16C14.032 10.6187 13.3226 10.9707 12.512 11.216C11.712 11.4613 10.912 11.584 10.112 11.584ZM12.272 9.824V5.616H14.64V10.16L12.272 9.824Z" fill="#E0E1DD"/>
<path d="M29.259 0.191998H31.851V11.392H29.259V0.191998ZM24.171 11.392H21.579V0.191998H24.171V11.392ZM29.451 6.8H23.979V4.608H29.451V6.8Z" fill="#415A77"/>
</g>
<defs>
<filter id="filter0_d_1_2" x="0" y="0" width="35.851" height="19.584" filterUnits="userSpaceOnUse" color-interpolation-filters="sRGB">
<feFlood flood-opacity="0" result="BackgroundImageFix"/>
<feColorMatrix in="SourceAlpha" type="matrix" values="0 0 0 0 0 0 0 0 0 0 0 0 0 0 0 0 0 0 127 0" result="hardAlpha"/>
<feOffset dy="4"/>
<feGaussianBlur stdDeviation="2"/>
<feComposite in2="hardAlpha" operator="out"/>
<feColorMatrix type="matrix" values="0 0 0 0 0 0 0 0 0 0 0 0 0 0 0 0 0 0 0.25 0"/>
<feBlend mode="normal" in2="BackgroundImageFix" result="effect1_dropShadow_1_2"/>
<feBlend mode="normal" in="SourceGraphic" in2="effect1_dropShadow_1_2" result="shape"/>
</filter>
</defs>
</svg>
